# xmcd CD database file
#
# Track frame offsets:
#	150
#	11635
#	25847
#	45835
#	62885
#	86235
#	102985
#	120985
#	133860
#	155560
#
# Disc length: 2240 seconds
#
# Revision: 0
# Processed by: cddbd v1.5.2PL0 Copyright (c) Steve Scherf et al.
# Submitted via: CDex 1.51
#
DISCID=7c08be0a
DTITLE=Danish-German Slide Combination - Fugue For Tinhorns
DYEAR=1988
DGENRE=Jazz
TTITLE0=After You've Gone
TTITLE1=Tonight I Shall Sleep
TTITLE2=Liberty City
TTITLE3=Very Early
TTITLE4=I Let A Song Out Of My Heart
TTITLE5=Fugue For Tinhorns
TTITLE6=Grandpa Blues
TTITLE7=Little Niles
TTITLE8=Tin Tin Deo
TTITLE9=Milos Other Samba
EXTD=YEAR: 1988
EXTT0=
EXTT1=
EXTT2=
EXTT3=
EXTT4=
EXTT5=
EXTT6=
EXTT7=
EXTT8=
EXTT9=
PLAYORDER=
